<svg width="113" height="111" viewBox="0 0 113 111" fill="none" xmlns="http://www.w3.org/2000/svg">
<path fill-rule="evenodd" clip-rule="evenodd" d="M56.4948 -1.24436e-06C25.2957 -1.24436e-06 0 25.4768 0 56.9063C0 82.0478 16.1875 103.375 38.639 110.903C41.4658 111.423 42.496 109.666 42.496 108.157C42.496 106.808 42.4474 103.228 42.4197 98.4804C26.7039 101.918 23.388 90.851 23.388 90.851C20.8179 84.2765 17.1135 82.5264 17.1135 82.5264C11.9836 78.9981 17.502 79.068 17.502 79.068C23.173 79.4697 26.1559 84.9333 26.1559 84.9333C31.1956 93.6281 39.3813 91.1164 42.6 89.6597C43.1134 85.9847 44.5701 83.4765 46.1864 82.0548C33.6409 80.619 20.4502 75.7353 20.4502 53.93C20.4502 47.7188 22.6527 42.6396 26.2669 38.6607C25.6842 37.2214 23.7453 31.4364 26.8184 23.6009C26.8184 23.6009 31.5633 22.0708 42.3572 29.4348C46.8628 28.1702 51.6979 27.5414 56.5017 27.5204C61.2987 27.5414 66.1337 28.1702 70.6462 29.4348C81.4333 22.0708 86.1677 23.6009 86.1677 23.6009C89.2512 31.4364 87.3123 37.2214 86.7296 38.6607C90.3507 42.6396 92.5394 47.7188 92.5394 53.93C92.5394 75.7912 79.3279 80.6015 66.7407 82.0093C68.7698 83.7665 70.5769 87.2389 70.5769 92.5487C70.5769 100.154 70.5075 106.291 70.5075 108.157C70.5075 109.68 71.5238 111.451 74.3922 110.896C96.8264 103.354 113 82.0408 113 56.9063C113 25.4768 87.7008 -1.24436e-06 56.4948 -1.24436e-06Z" fill="white"/>
</svg>
