<svg width="150" height="150" viewBox="0 0 150 150" fill="none" xmlns="http://www.w3.org/2000/svg">
<path d="M68.7578 85.0039C68.7578 94.6523 66.5508 102.426 62.1367 108.324C57.7227 114.223 51.7461 117.172 44.207 117.172C36.5117 117.172 30.457 114.73 26.043 109.848V140.375H15.2031V52.6016H25.1055L25.6328 59.6328C30.0469 54.1641 36.1797 51.4297 44.0312 51.4297C51.6484 51.4297 57.6641 54.3008 62.0781 60.043C66.5312 65.7852 68.7578 73.7734 68.7578 84.0078V85.0039ZM57.918 83.7734C57.918 76.625 56.3945 70.9805 53.3477 66.8398C50.3008 62.6992 46.1211 60.6289 40.8086 60.6289C34.2461 60.6289 29.3242 63.5391 26.043 69.3594V99.6523C29.2852 105.434 34.2461 108.324 40.9258 108.324C46.1211 108.324 50.2422 106.273 53.2891 102.172C56.375 98.0312 57.918 91.8984 57.918 83.7734ZM86.4531 73.2266L90.7891 30.6875H134.5V40.707H99.9883L97.4102 63.9688C101.59 61.5078 106.336 60.2773 111.648 60.2773C119.422 60.2773 125.594 62.8555 130.164 68.0117C134.734 73.1289 137.02 80.0625 137.02 88.8125C137.02 97.6016 134.637 104.535 129.871 109.613C125.145 114.652 118.523 117.172 110.008 117.172C102.469 117.172 96.3164 115.082 91.5508 110.902C86.7852 106.723 84.0703 100.941 83.4062 93.5586H93.6602C94.3242 98.4414 96.0625 102.133 98.875 104.633C101.688 107.094 105.398 108.324 110.008 108.324C115.047 108.324 118.992 106.605 121.844 103.168C124.734 99.7305 126.18 94.9844 126.18 88.9297C126.18 83.2266 124.617 78.6562 121.492 75.2188C118.406 71.7422 114.285 70.0039 109.129 70.0039C104.402 70.0039 100.691 71.0391 97.9961 73.1094L95.125 75.4531L86.4531 73.2266Z" fill="white"/>
</svg>
