<svg width="272" height="60" viewBox="0 0 272 60" fill="none" xmlns="http://www.w3.org/2000/svg">
<mask id="path-1-outside-1_404_42" maskUnits="userSpaceOnUse" x="0" y="0" width="272" height="60" fill="black">
<rect fill="white" width="272" height="60"/>
<path d="M1 1.8H14.04C18.5733 1.8 21.88 2.86667 23.96 5C26.04 7.08 27.08 10.3067 27.08 14.68V18.12C27.08 23.9333 25.16 27.6133 21.32 29.16V29.32C23.4533 29.96 24.9467 31.2667 25.8 33.24C26.7067 35.2133 27.16 37.8533 27.16 41.16V51C27.16 52.6 27.2133 53.9067 27.32 54.92C27.4267 55.88 27.6933 56.84 28.12 57.8H19.16C18.84 56.8933 18.6267 56.04 18.52 55.24C18.4133 54.44 18.36 53 18.36 50.92V40.68C18.36 38.12 17.9333 36.3333 17.08 35.32C16.28 34.3067 14.8667 33.8 12.84 33.8H9.8V57.8H1V1.8ZM13 25.8C14.76 25.8 16.0667 25.3467 16.92 24.44C17.8267 23.5333 18.28 22.0133 18.28 19.88V15.56C18.28 13.5333 17.9067 12.0667 17.16 11.16C16.4667 10.2533 15.3467 9.8 13.8 9.8H9.8V25.8H13Z"/>
<path d="M45.9856 58.6C41.6656 58.6 38.359 57.3733 36.0656 54.92C33.7723 52.4667 32.6256 49 32.6256 44.52V15.08C32.6256 10.6 33.7723 7.13333 36.0656 4.68C38.359 2.22667 41.6656 1 45.9856 1C50.3056 1 53.6123 2.22667 55.9056 4.68C58.199 7.13333 59.3456 10.6 59.3456 15.08V44.52C59.3456 49 58.199 52.4667 55.9056 54.92C53.6123 57.3733 50.3056 58.6 45.9856 58.6ZM45.9856 50.6C49.0256 50.6 50.5456 48.76 50.5456 45.08V14.52C50.5456 10.84 49.0256 9 45.9856 9C42.9456 9 41.4256 10.84 41.4256 14.52V45.08C41.4256 48.76 42.9456 50.6 45.9856 50.6Z"/>
<path d="M77.7769 58.6C73.5102 58.6 70.2569 57.4 68.0169 55C65.7769 52.5467 64.6569 49.0533 64.6569 44.52V15.08C64.6569 10.5467 65.7769 7.08 68.0169 4.68C70.2569 2.22667 73.5102 1 77.7769 1C82.0435 1 85.2969 2.22667 87.5369 4.68C89.7769 7.08 90.8969 10.5467 90.8969 15.08V19.88H82.5769V14.52C82.5769 10.84 81.0569 9 78.0169 9C74.9769 9 73.4569 10.84 73.4569 14.52V45.16C73.4569 48.7867 74.9769 50.6 78.0169 50.6C81.0569 50.6 82.5769 48.7867 82.5769 45.16V34.2H78.1769V26.2H90.8969V44.52C90.8969 49.0533 89.7769 52.5467 87.5369 55C85.2969 57.4 82.0435 58.6 77.7769 58.6Z"/>
<path d="M96.5469 1.8H120.547V9.8H105.347V24.6H117.427V32.6H105.347V49.8H120.547V57.8H96.5469V1.8Z"/>
<path d="M125.609 1.8H138.649C143.183 1.8 146.489 2.86667 148.569 5C150.649 7.08 151.689 10.3067 151.689 14.68V18.12C151.689 23.9333 149.769 27.6133 145.929 29.16V29.32C148.063 29.96 149.556 31.2667 150.409 33.24C151.316 35.2133 151.769 37.8533 151.769 41.16V51C151.769 52.6 151.823 53.9067 151.929 54.92C152.036 55.88 152.303 56.84 152.729 57.8H143.769C143.449 56.8933 143.236 56.04 143.129 55.24C143.023 54.44 142.969 53 142.969 50.92V40.68C142.969 38.12 142.543 36.3333 141.689 35.32C140.889 34.3067 139.476 33.8 137.449 33.8H134.409V57.8H125.609V1.8ZM137.609 25.8C139.369 25.8 140.676 25.3467 141.529 24.44C142.436 23.5333 142.889 22.0133 142.889 19.88V15.56C142.889 13.5333 142.516 12.0667 141.769 11.16C141.076 10.2533 139.956 9.8 138.409 9.8H134.409V25.8H137.609Z"/>
<path d="M170.688 1.8H193.967V9.8H179.488V25.4H190.848V33.4H179.488V57.8H170.688V1.8Z"/>
<path d="M202.409 1.8H214.329L223.449 57.8H214.649L213.049 46.68V46.84H203.049L201.449 57.8H193.289L202.409 1.8ZM212.009 39.24L208.089 11.56H207.929L204.089 39.24H212.009Z"/>
<path d="M227.719 1.8H238.759L247.319 35.32H247.479V1.8H255.319V57.8H246.279L235.719 16.92H235.559V57.8H227.719V1.8Z"/>
<path d="M261.859 49.32H270.339V57.8H261.859V49.32Z"/>
</mask>
<path d="M1 1.8H14.04C18.5733 1.8 21.88 2.86667 23.96 5C26.04 7.08 27.08 10.3067 27.08 14.68V18.12C27.08 23.9333 25.16 27.6133 21.32 29.16V29.32C23.4533 29.96 24.9467 31.2667 25.8 33.24C26.7067 35.2133 27.16 37.8533 27.16 41.16V51C27.16 52.6 27.2133 53.9067 27.32 54.92C27.4267 55.88 27.6933 56.84 28.12 57.8H19.16C18.84 56.8933 18.6267 56.04 18.52 55.24C18.4133 54.44 18.36 53 18.36 50.92V40.68C18.36 38.12 17.9333 36.3333 17.08 35.32C16.28 34.3067 14.8667 33.8 12.84 33.8H9.8V57.8H1V1.8ZM13 25.8C14.76 25.8 16.0667 25.3467 16.92 24.44C17.8267 23.5333 18.28 22.0133 18.28 19.88V15.56C18.28 13.5333 17.9067 12.0667 17.16 11.16C16.4667 10.2533 15.3467 9.8 13.8 9.8H9.8V25.8H13Z" stroke="white" stroke-width="2" mask="url(#path-1-outside-1_404_42)"/>
<path d="M45.9856 58.6C41.6656 58.6 38.359 57.3733 36.0656 54.92C33.7723 52.4667 32.6256 49 32.6256 44.52V15.08C32.6256 10.6 33.7723 7.13333 36.0656 4.68C38.359 2.22667 41.6656 1 45.9856 1C50.3056 1 53.6123 2.22667 55.9056 4.68C58.199 7.13333 59.3456 10.6 59.3456 15.08V44.52C59.3456 49 58.199 52.4667 55.9056 54.92C53.6123 57.3733 50.3056 58.6 45.9856 58.6ZM45.9856 50.6C49.0256 50.6 50.5456 48.76 50.5456 45.08V14.52C50.5456 10.84 49.0256 9 45.9856 9C42.9456 9 41.4256 10.84 41.4256 14.52V45.08C41.4256 48.76 42.9456 50.6 45.9856 50.6Z" stroke="white" stroke-width="2" mask="url(#path-1-outside-1_404_42)"/>
<path d="M77.7769 58.6C73.5102 58.6 70.2569 57.4 68.0169 55C65.7769 52.5467 64.6569 49.0533 64.6569 44.52V15.08C64.6569 10.5467 65.7769 7.08 68.0169 4.68C70.2569 2.22667 73.5102 1 77.7769 1C82.0435 1 85.2969 2.22667 87.5369 4.68C89.7769 7.08 90.8969 10.5467 90.8969 15.08V19.88H82.5769V14.52C82.5769 10.84 81.0569 9 78.0169 9C74.9769 9 73.4569 10.84 73.4569 14.52V45.16C73.4569 48.7867 74.9769 50.6 78.0169 50.6C81.0569 50.6 82.5769 48.7867 82.5769 45.16V34.2H78.1769V26.2H90.8969V44.52C90.8969 49.0533 89.7769 52.5467 87.5369 55C85.2969 57.4 82.0435 58.6 77.7769 58.6Z" stroke="white" stroke-width="2" mask="url(#path-1-outside-1_404_42)"/>
<path d="M96.5469 1.8H120.547V9.8H105.347V24.6H117.427V32.6H105.347V49.8H120.547V57.8H96.5469V1.8Z" stroke="white" stroke-width="2" mask="url(#path-1-outside-1_404_42)"/>
<path d="M125.609 1.8H138.649C143.183 1.8 146.489 2.86667 148.569 5C150.649 7.08 151.689 10.3067 151.689 14.68V18.12C151.689 23.9333 149.769 27.6133 145.929 29.16V29.32C148.063 29.96 149.556 31.2667 150.409 33.24C151.316 35.2133 151.769 37.8533 151.769 41.16V51C151.769 52.6 151.823 53.9067 151.929 54.92C152.036 55.88 152.303 56.84 152.729 57.8H143.769C143.449 56.8933 143.236 56.04 143.129 55.24C143.023 54.44 142.969 53 142.969 50.92V40.68C142.969 38.12 142.543 36.3333 141.689 35.32C140.889 34.3067 139.476 33.8 137.449 33.8H134.409V57.8H125.609V1.8ZM137.609 25.8C139.369 25.8 140.676 25.3467 141.529 24.44C142.436 23.5333 142.889 22.0133 142.889 19.88V15.56C142.889 13.5333 142.516 12.0667 141.769 11.16C141.076 10.2533 139.956 9.8 138.409 9.8H134.409V25.8H137.609Z" stroke="white" stroke-width="2" mask="url(#path-1-outside-1_404_42)"/>
<path d="M170.688 1.8H193.967V9.8H179.488V25.4H190.848V33.4H179.488V57.8H170.688V1.8Z" stroke="white" stroke-width="2" mask="url(#path-1-outside-1_404_42)"/>
<path d="M202.409 1.8H214.329L223.449 57.8H214.649L213.049 46.68V46.84H203.049L201.449 57.8H193.289L202.409 1.8ZM212.009 39.24L208.089 11.56H207.929L204.089 39.24H212.009Z" stroke="white" stroke-width="2" mask="url(#path-1-outside-1_404_42)"/>
<path d="M227.719 1.8H238.759L247.319 35.32H247.479V1.8H255.319V57.8H246.279L235.719 16.92H235.559V57.8H227.719V1.8Z" stroke="white" stroke-width="2" mask="url(#path-1-outside-1_404_42)"/>
<path d="M261.859 49.32H270.339V57.8H261.859V49.32Z" stroke="white" stroke-width="2" mask="url(#path-1-outside-1_404_42)"/>
</svg>
